<svg width="120" height="120" xmlns="http://www.w3.org/2000/svg">
 <g id="Layer_1">
  <title>Layer 1</title>
  <path id="svg_3" d="m60.34974,-0.49253c16.46507,0 29.82248,13.50299 29.82248,30.13151c0,16.62852 -13.35741,30.11853 -29.82248,30.11853c-16.46508,0 -29.82249,13.50301 -29.82249,30.13152c0,16.62852 13.35741,30.11853 29.82249,30.11853c32.93014,0 59.65781,-26.99301 59.65781,-60.25005c0,-33.25704 -26.72767,-60.25003 -59.65781,-60.25003l0,0zm0,20.71541c-5.14798,0 -9.32355,4.217 -9.32355,9.4161c0,5.1991 4.17556,9.4161 9.32355,9.4161c5.14799,0 9.32354,-4.217 9.32354,-9.4161c0,-5.19909 -4.17555,-9.4161 -9.32354,-9.4161zm0,60.25005c5.14533,0 9.32354,4.21968 9.32354,9.4161c0,5.1964 -4.17821,9.4161 -9.32354,9.4161c-5.14533,0 -9.32355,-4.2197 -9.32355,-9.4161c0,-5.1964 4.17822,-9.4161 9.32355,-9.4161zm58.31973,-20.67704c0,33.23233 -26.67531,60.17245 -59.58101,60.17245c-32.90568,0 -59.58101,-26.94012 -59.58101,-60.17245c0,-33.23234 26.67533,-60.17247 59.58101,-60.17247c32.9057,0 59.58101,26.94013 59.58101,60.17247z" stroke="#000" fill="#000000"/>
 </g>
</svg>